HIERARCHY
ROOT Hips
{
	OFFSET 0.000000 0.000000 0.000000 
	CHANNELS 6 Xposition Yposition Zposition Yrotation Zrotation Xrotation 
	JOINT Lumbar
	{
		OFFSET 0.000000 0.000000 0.000000 
		CHANNELS 3 Zrotation Xrotation Yrotation
		JOINT Neck
		{
			OFFSET 0.000000 0.445665 0.000000 
			CHANNELS 3 Zrotation Xrotation Yrotation
			End Site
			{
				OFFSET 0.000000 0.227535 0.000000 
			}
		}
		JOINT RightShoulder
		{
			OFFSET 0.019635 0.377685 0.194865 
			CHANNELS 3 Zrotation Xrotation Yrotation
			JOINT RightElbow
			{
				OFFSET 0.000000 -0.243375 0.000000 
				CHANNELS 2 Zrotation Yrotation
				JOINT RightWrist
				{
					OFFSET 0.000000 -0.264825 0.000000 
					CHANNELS 2 Zrotation Xrotation
					End Site
					{
						OFFSET 0.006600 -0.176220 0.000990 
					}
				}
			}
		}
		JOINT LeftShoulder
		{
			OFFSET 0.019635 0.377685 -0.194865 
			CHANNELS 3 Zrotation Xrotation Yrotation
			JOINT LeftElbow
			{
				OFFSET 0.000000 -0.243375 0.000000 
				CHANNELS 2 Zrotation Yrotation
				JOINT LeftWrist
				{
					OFFSET 0.000000 -0.264825 0.000000 
					CHANNELS 2 Zrotation Xrotation
					End Site
					{
						OFFSET 0.006600 -0.176220 -0.000990 
					}
				}
			}
		}
	}
	JOINT RightHip
	{
		OFFSET 0.052140 -0.069960 0.075570 
		CHANNELS 3 Zrotation Xrotation Yrotation
		JOINT RightKnee
		{
			OFFSET 0.000000 -0.402270 0.000000 
			CHANNELS 1 Zrotation
			JOINT RightAnkle
			{
				OFFSET 0.000000 -0.404085 0.000000 
				CHANNELS 3 Zrotation Xrotation Yrotation
				End Site
				{
					OFFSET 0.204105 -0.089430 0.008415 
				}
			}
		}
	}
	JOINT LeftHip
	{
		OFFSET 0.052140 -0.069960 -0.075570 
		CHANNELS 3 Zrotation Xrotation Yrotation
		JOINT LeftKnee
		{
			OFFSET 0.000000 -0.402270 0.000000 
			CHANNELS 1 Zrotation
			JOINT LeftAnkle
			{
				OFFSET 0.000000 -0.404085 0.000000 
				CHANNELS 3 Zrotation Xrotation Yrotation
				End Site
				{
					OFFSET 0.204105 -0.089430 -0.008415 
				}
			}
		}
	}
}
MOTION
Frames: 10
Frame Time: 0.02
0.09699 -0.91234 0.05819 -191.14552 -1.71428 -13.0977 3.61528 3.21464 -0.12979 -26.00309 -1.19825 -2.11994 -24.408 -55.10112 -29.12407 88.55494 85.28311 -12.41181 -4.42981 -12.19827 45.47338 28.94065 93.68719 -83.73267 -16.72617 4.83375 126.68096 -32.0856 -46.69605 -146.70692 -2.73013 33.1119 13.00451 126.68097 19.71118 46.69606 -147.07826 13.22333 -33.11488 -13.00546
0.09615 -0.91232 0.05707 -191.21553 -1.90774 -12.75588 3.87395 3.09502 -0.20883 -25.88426 -1.25349 -2.11994 -24.72997 -55.22259 -29.52436 89.0399 85.39669 -12.51834 -4.51321 -12.51685 45.26921 29.43383 93.9669 -83.74729 -16.75491 4.82004 126.68095 -32.08557 -46.69604 -146.7749 -2.89835 33.10945 13.00372 126.68097 19.81857 46.69606 -147.07826 14.20359 -33.11489 -13.00547
0.0952 -0.91244 0.0554 -191.21817 -2.0691 -12.37512 4.10873 2.9323 -0.30233 -25.78843 -1.33443 -2.11994 -25.09383 -55.22172 -29.95735 89.56882 85.36313 -12.4982 -4.5692 -12.8415 45.03742 29.94486 94.25034 -83.76527 -16.76624 4.81359 126.68094 -32.08553 -46.69603 -146.85344 -3.15298 33.10542 13.00241 126.68097 19.91949 46.69606 -147.07826 15.24914 -33.11497 -13.0055
0.09432 -0.9125 0.05397 -191.24964 -2.24454 -12.01041 4.3515 2.79093 -0.38832 -25.68257 -1.40561 -2.11994 -25.43422 -55.27761 -30.36979 90.07763 85.39458 -12.53441 -4.63327 -13.16329 44.80681 30.44778 94.53349 -83.77592 -16.7624 4.79637 126.68094 -32.0855 -46.69603 -146.92489 -3.37498 33.10237 13.00143 126.68097 20.02642 46.69606 -147.07826 16.25226 -33.11503 -13.00551
0.09338 -0.91255 0.05256 -191.28668 -2.42194 -11.6506 4.60638 2.64049 -0.47833 -25.57456 -1.46957 -2.11994 -25.79778 -55.32778 -30.81008 90.58721 85.44018 -12.58132 -4.71708 -13.4837 44.62423 30.9506 94.80882 -83.81004 -16.85291 4.80885 126.68093 -32.08546 -46.69602 -147.00602 -3.5712 33.09829 13.00011 126.68097 20.11853 46.69606 -147.07826 17.31409 -33.11506 -13.00553
0.09253 -0.91265 0.05098 -191.29691 -2.58751 -11.27205 4.83001 2.49957 -0.56304 -25.47686 -1.55415 -2.11994 -26.1204 -55.36159 -31.19783 91.10503 85.41819 -12.57229 -4.75277 -13.80916 44.33459 31.45726 95.1024 -83.79714 -16.74661 4.76301 126.68092 -32.08544 -46.69601 -147.06955 -3.84061 33.09594 12.99935 126.68097 20.24102 46.69606 -147.07826 18.26621 -33.11516 -13.00556
0.09199 -0.91285 0.04906 -191.24912 -2.73073 -10.85227 4.97736 2.39291 -0.63369 -25.39934 -1.69175 -2.11994 -26.33099 -55.37414 -31.44266 91.64128 85.25542 -12.45843 -4.66234 -14.1467 43.7615 31.97766 95.44138 -83.64567 -16.06821 4.54054 126.68093 -32.08547 -46.69602 -147.08128 -4.29287 33.099 13.00034 126.68097 20.44461 46.69606 -147.07826 18.91198 -33.11542 -13.00564
0.09155 -0.9131 0.04698 -191.17694 -2.86277 -10.4152 5.09336 2.29815 -0.69782 -25.33194 -1.84866 -2.11994 -26.49637 -55.37539 -31.63106 92.18322 85.02755 -12.2893 -4.52437 -14.4894 43.08051 32.49975 95.79972 -83.4485 -15.19851 4.26173 126.68094 -32.08551 -46.69603 -147.07503 -4.81495 33.10382 13.0019 126.68097 20.67992 46.69606 -147.07826 19.44193 -33.11574 -13.00575
0.09107 -0.91334 0.04498 -191.1166 -2.99838 -9.98554 5.22099 2.19967 -0.7622 -25.26162 -1.99511 -2.11994 -26.67454 -55.38608 -31.83838 92.71834 84.82168 -12.13184 -4.40776 -14.83026 42.44569 33.01659 96.15193 -83.27722 -14.438 4.01789 126.68095 -32.08555 -46.69604 -147.07741 -5.30378 33.10767 13.00314 126.68097 20.90388 46.69606 -147.07826 20.01647 -33.11603 -13.00584
0.09055 -0.91355 0.04294 -191.05104 -3.13924 -9.55585 5.35879 2.09194 -0.83834 -25.18491 -2.1497 -2.11994 -26.88687 -55.37525 -32.07579 93.27263 84.64098 -12.02402 -4.29063 -15.16928 41.82275 33.55406 96.49243 -83.08358 -13.58294 3.73494 126.68096 -32.08559 -46.69605 -147.07827 -5.80289 33.11218 13.0046 126.68097 21.11504 46.69606 -147.07827 20.62845 -33.11636 -13.00595
